<svg xmlns="http://www.w3.org/2000/svg" xmlns:xlink="http://www.w3.org/1999/xlink" fill="none" version="1.1" width="30" height="29.999998092651367" viewBox="0 0 30 29.999998092651367"><defs><clipPath id="master_svg0_1758_96727"><rect x="0" y="0" width="30" height="29.999998092651367" rx="0"/></clipPath><linearGradient x1="0.697868824005127" y1="0.8791772127151489" x2="0.33609050194201895" y2="0.19988999325358864" id="master_svg1_719_25205"><stop offset="0%" stop-color="#6B93FF" stop-opacity="1"/><stop offset="99.28571581840515%" stop-color="#584CFF" stop-opacity="1"/></linearGradient></defs><g clip-path="url(#master_svg0_1758_96727)"><g><path d="M11.811614065625,22.97271553125C9.053356665625,21.14147153125,8.657805965625,19.10675653125,9.030837565625,16.22424553125C9.403868165625,13.34173153125,12.561702265625,10.44650453125,14.795580265625,10.01836303125C17.029455265625,9.59022333125,21.075273265625,9.82986163125,22.799068265625,8.153209231249999C24.522863265625,6.47655533125,25.994230265625,3.94944693125,25.478119265625,0.28564453125C24.728838265625,1.63561723125,23.172107265625,2.79512623125,22.086925265625,3.30380483125C21.001745265625,3.81248353125,20.080850265625,3.90177773125,18.503154265625,4.35759733125C19.456472265625,3.83358313125,20.187860265625,2.89686203125,20.187860265625,2.15079983125C18.933120265625,3.26989293125,17.156484265625,3.38728263125,14.795580265625,3.71074533125C11.254221965625,4.19593903125,7.606532565625,4.83235793125,5.130964065625,8.153209231249999C2.655397055625,11.47405953125,2.886879445625,16.55308753125,4.486635665625,19.24240453125C5.553138965625,21.03528253125,8.047387165625,22.97271553125,11.811614065625,22.97271553125ZM14.795952265625,11.06974753125C12.150823265625,11.84972253125,10.894770665625,13.80815153125,10.319580065625,15.91915253125C11.926884665625,14.25332453125,13.704059265625,14.00960953125,15.618752265625,14.41036753125C18.490791265625,15.01150753125,20.458004265625,17.91734153125,19.719732265625,22.44017053125C19.227552265625,25.45539253125,18.069961265625,27.40387153125,16.246961265625,28.28560453125C19.739879265625,27.73915853125,22.645483265625,25.89075653125,24.571100265625,23.51585053125C26.496717265625,21.14094153125,26.659151265625,20.19205453125,27.038152265625,19.03905153125C27.417152265625,17.88604353125,27.517961265625,15.96784753125,27.417152265625,13.07055053125C27.105978265625,13.85052453125,26.330229265625,14.81795053125,25.342558265625,15.39659753125C26.762768265625,12.79925653125,27.038152265625,11.54451553125,27.038152265625,9.74718383125C27.038152265625,7.94985203125,26.636989265625,6.83075903125,25.952972265625,4.82995603125C25.342558265625,7.06814243125,23.986080265625,9.10285763125,21.646158265625,10.05239103125C19.306236265625,11.00192453125,17.441082265625,10.28977353125,14.795952265625,11.06974753125ZM2.723427595625,13.03662153125C2.710722325625,13.12979553125,2.695366855625,13.22720153125,2.678948645625,13.33134853125C2.563903395625,14.06112553125,2.396675915625,15.12191653125,2.723431285625,17.37734653125C3.096818265625,19.95465053125,5.0294456656249995,22.25582653125,7.131963265625,23.20777853125C9.234481365625001,24.15972853125,12.515714265625,24.75899653125,15.265528265625,23.57193353125Q18.015340265625,22.38487253125,18.197738265625,18.56806553125C18.228115265625,18.74714253125,18.257965265625,18.91181353125,18.286342265625,19.06835153125C18.444824265625,19.94262553125,18.557321265625,20.56321153125,18.458542265625,22.02327753125C18.342075265625,23.74477753125,17.206982265625,26.35683053125,15.462259265625,27.23303053125C13.717536265625,28.10922853125,11.574807165625,28.39909153125,8.838038465625,27.68547653125C7.013524065625,27.20972853125,5.212813365625,25.67193953125,3.435919265625,23.20777353125C4.074691565625,23.85411653125,4.836165165625,24.28592253125,5.720341465624999,24.50318553125C4.149260565625,23.45271653125,2.903569225625,21.79656553125,2.390221805625,19.53475953125C1.876874715625,17.27295653125,2.248644815625,14.42700953125,2.723427595625,13.03662153125Z" fill-rule="evenodd" fill="url(#master_svg1_719_25205)" fill-opacity="1"/></g></g></svg>